<svg width="1024" height="1024" viewBox="0 0 1024 1024" fill="none" xmlns="http://www.w3.org/2000/svg">
<path d="M173.328 650V173.333C173.328 149.401 192.729 130 216.661 130H693.328C789.057 130 866.661 207.604 866.661 303.333V650C866.661 769.662 769.657 866.667 649.995 866.667H389.995C270.333 866.667 173.328 769.661 173.328 650Z" stroke="#1C9CDC" stroke-width="43.3333" stroke-linecap="round"/>
<path d="M606.659 693.333L519.992 736.667L433.325 693.333M389.992 476.667H433.325C457.258 476.667 476.659 457.266 476.659 433.333V433.333C476.659 409.401 457.258 390 433.325 390H389.992C342.127 390 303.325 428.802 303.325 476.667V476.667C303.325 524.531 342.127 563.333 389.992 563.333H433.325C457.258 563.333 476.659 543.932 476.659 520V520M671.659 476.667H714.992C738.924 476.667 758.325 457.266 758.325 433.333V433.333C758.325 409.401 738.93 390 714.997 390C700.572 390 685.808 390 671.648 390C623.783 390 584.992 428.802 584.992 476.667V476.667C584.992 524.531 623.794 563.333 671.659 563.333H714.992C738.924 563.333 758.325 543.932 758.325 520V520" stroke="#1C9CDC" stroke-width="43.3333" stroke-linecap="round"/>
<path d="M259.992 238.333C248.026 238.333 238.325 228.633 238.325 216.667C238.325 204.7 248.026 195 259.992 195C271.958 195 281.659 204.7 281.659 216.667C281.659 228.633 271.958 238.333 259.992 238.333Z" stroke="#1C9CDC" stroke-width="21.6667" stroke-linecap="round"/>
</svg>
